<?xml version="1.0" encoding="UTF-8" standalone="no"?>
<svg
   xmlns:dc="http://purl.org/dc/elements/1.1/"
   xmlns:cc="http://creativecommons.org/ns#"
   xmlns:rdf="http://www.w3.org/1999/02/22-rdf-syntax-ns#"
   xmlns:svg="http://www.w3.org/2000/svg"
   xmlns="http://www.w3.org/2000/svg"
   id="svg42"
   version="1.1"
   viewBox="0 0 1200 500"
   height="500mm"
   width="1200mm">
  <defs
     id="defs36">
    <rect
       id="rect22"
       height="110.36905"
       width="695.4762"
       y="190.5"
       x="538.2381" />
    <filter
       height="1.0053672"
       y="-0.0026835985"
       width="1.0053672"
       x="-0.0026835985"
       id="filter70"
       style="color-interpolation-filters:sRGB">
      <feGaussianBlur
         id="feGaussianBlur72"
         stdDeviation="0.18582161" />
    </filter>
    <filter
       style="color-interpolation-filters:sRGB"
       id="filter70-8"
       x="-0.0026835985"
       width="1.0053672"
       y="-0.0026835985"
       height="1.0053672">
      <feGaussianBlur
         stdDeviation="0.18582161"
         id="feGaussianBlur72-1" />
    </filter>
    <filter
       style="color-interpolation-filters:sRGB"
       id="filter70-6"
       x="-0.0026835985"
       width="1.0053672"
       y="-0.0026835985"
       height="1.0053672">
      <feGaussianBlur
         stdDeviation="0.18582161"
         id="feGaussianBlur72-8" />
    </filter>
    <filter
       style="color-interpolation-filters:sRGB"
       id="filter70-4"
       x="-0.0026835985"
       width="1.0053672"
       y="-0.0026835985"
       height="1.0053672">
      <feGaussianBlur
         stdDeviation="0.18582161"
         id="feGaussianBlur72-9" />
    </filter>
  </defs>
  <metadata
     id="metadata39">
    <rdf:RDF>
      <cc:Work
         rdf:about="">
        <dc:format>image/svg+xml</dc:format>
        <dc:type
           rdf:resource="http://purl.org/dc/dcmitype/StillImage" />
        <dc:title></dc:title>
      </cc:Work>
    </rdf:RDF>
  </metadata>
  <g
     id="layer1">
    <path
       d="m 28.517402,94.137124 c -2.195501,-2.388978 -4.457358,-4.735827 -6.428937,-7.318922 -0.529722,-0.694024 -1.132578,-1.351603 -1.51574,-2.136114 -0.439652,-0.900173 -0.616187,-1.9065 -0.924281,-2.859749 0.118526,-1.322012 0.07672,-2.668341 0.355576,-3.966032 1.333226,-6.204334 4.974011,-10.362227 9.650564,-14.468118 5.681578,-4.988272 8.183039,-6.142098 14.718408,-10.190215 -0.05224,0.100959 -0.257799,0.354888 -0.15672,0.302879 9.330825,-4.80109 18.600099,-10.307646 27.3402,-16.041312 2.697482,-1.769597 5.903968,-4.701675 8.370644,-6.859061 2.139114,-2.098355 4.386024,-4.197622 5.943544,-6.793724 0.223568,-0.372642 0.42803,-0.765552 0.546253,-1.183723 0.06152,-0.217618 0.177538,-0.78848 -0.01987,-0.678152 -3.74619,2.093671 -7.288506,4.532907 -10.93276,6.799362 -0.470927,1.248442 -1.021173,2.46978 -1.41278,3.745328 -0.950783,3.096879 -1.728951,6.244174 -2.611117,9.361291 -1.266391,4.474766 -2.566133,8.940044 -3.834527,13.414243 -4.925547,17.374632 -9.665383,34.79769 -14.394516,52.226575 -4.733335,17.15987 -10.38075,34.0455 -17.821592,50.23113 -4.238654,9.2201 -5.814095,11.63516 -10.520699,19.92191 0,0 8.579493,-3.84792 8.579493,-3.84792 v 0 c 4.234601,-8.23156 5.509292,-10.39113 9.389383,-19.50679 6.900931,-16.21265 12.245294,-32.98905 16.990393,-49.94632 1.345784,-4.704521 8.932582,-31.279678 10.524132,-36.643306 3.958109,-13.339093 8.022656,-26.692053 13.241666,-39.604037 0.531093,-1.313944 1.188955,-2.573018 1.783432,-3.859528 -3.00649,0.928978 -6.030696,1.802442 -9.019466,2.786934 -0.06456,0.02127 -0.01773,0.136644 -0.04505,0.198887 -0.14037,0.31985 -0.272691,0.646168 -0.45624,0.943348 -1.482698,2.400602 -3.535079,4.381632 -5.535512,6.339491 -1.174377,1.031258 -2.31313,2.104559 -3.523133,3.093778 -1.481987,1.211577 -3.459726,1.931014 -4.548738,3.505264 -0.608005,0.878916 3.83558,-1.838725 2.966053,-1.21737 -2.009791,1.436169 -4.273156,2.479723 -6.426464,3.690136 -2.380147,1.337924 -4.782259,2.636388 -7.173389,3.954582 -5.34049,3.023621 -10.680983,6.047242 -16.021473,9.070863 -6.598542,4.152604 -9.244003,5.408272 -14.963819,10.529883 -4.92585,4.410683 -8.719153,8.78664 -10.010308,15.406682 -0.283488,1.453507 -0.231928,2.952691 -0.347891,4.429037 0.333349,1.069742 0.514382,2.199473 1.000046,3.209224 0.388307,0.807339 1.038034,1.461042 1.586811,2.169152 1.998162,2.578312 4.279502,4.930222 6.100321,7.647628 0,0 9.558101,-5.857214 9.558101,-5.857214 z"
       id="path44"
       style="fill:none;stroke-width:0.264583" />
    <rect
       transform="rotate(45,14.801537,177.98752)"
       ry="15"
       rx="15"
       y="-55.919838"
       x="94.119774"
       height="122.82121"
       width="124.94093"
       id="rect64"
       style="fill:#000000;stroke-width:0.264583;filter:url(#filter70)" />
    <rect
       style="fill:#000000;stroke-width:0.264583;filter:url(#filter70-8)"
       id="rect64-5"
       width="124.94093"
       height="122.82121"
       x="94.119774"
       y="-55.919838"
       rx="15"
       ry="15"
       transform="rotate(45,-209.97989,273.21471)" />
    <rect
       style="fill:#000000;stroke-width:0.264583;filter:url(#filter70-6)"
       id="rect64-6"
       width="124.94093"
       height="122.82121"
       x="94.119774"
       y="-55.919838"
       rx="15"
       ry="15"
       transform="rotate(45,-50.991066,340.65758)" />
    <rect
       style="fill:#000000;stroke-width:0.264583;filter:url(#filter70-4)"
       id="rect64-3"
       width="124.94093"
       height="122.82121"
       x="94.119774"
       y="-55.919838"
       rx="15"
       ry="15"
       transform="rotate(45,-144.18715,110.54466)" />
    <text
       transform="translate(-86.858952,11.566071)"
       style="font-style:normal;font-weight:normal;font-size:10.5833px;line-height:1.25;font-family:sans-serif;white-space:pre;shape-inside:url(#rect22);fill:#000000;fill-opacity:1;stroke:none;"
       id="text20"
       xml:space="preserve"><tspan
         x="538.23828"
         y="268.64456"><tspan
           style="font-style:normal;font-variant:normal;font-weight:normal;font-stretch:normal;font-size:88.1944px;font-family:'Open Sans';-inkscape-font-specification:'Open Sans'">DECCAN ENGINE</tspan></tspan></text>
  </g>
</svg>
