<?xml version="1.0" encoding="UTF-8" standalone="no"?>
<svg
   xmlns:dc="http://purl.org/dc/elements/1.1/"
   xmlns:cc="http://creativecommons.org/ns#"
   xmlns:rdf="http://www.w3.org/1999/02/22-rdf-syntax-ns#"
   xmlns:svg="http://www.w3.org/2000/svg"
   xmlns="http://www.w3.org/2000/svg"
   xmlns:sodipodi="http://sodipodi.sourceforge.net/DTD/sodipodi-0.dtd"
   xmlns:inkscape="http://www.inkscape.org/namespaces/inkscape"
   id="svg42"
   version="1.1"
   viewBox="0 0 1200 500"
   height="500mm"
   width="1200mm"
   sodipodi:docname="deccan-logo-to.svg"
   inkscape:version="1.0.1 (1.0.1+r73)">
  <sodipodi:namedview
     pagecolor="#ffffff"
     bordercolor="#666666"
     borderopacity="1"
     objecttolerance="10"
     gridtolerance="10"
     guidetolerance="10"
     inkscape:pageopacity="0"
     inkscape:pageshadow="2"
     inkscape:window-width="1366"
     inkscape:window-height="717"
     id="namedview294"
     showgrid="false"
     inkscape:zoom="0.25752778"
     inkscape:cx="2267.7165"
     inkscape:cy="944.88189"
     inkscape:window-x="0"
     inkscape:window-y="25"
     inkscape:window-maximized="1"
     inkscape:current-layer="svg42" />
  <defs
     id="defs36">
    <rect
       id="rect22"
       height="110.36905"
       width="695.4762"
       y="190.5"
       x="538.2381" />
    <filter
       height="1.0053672"
       y="-0.0026835985"
       width="1.0053672"
       x="-0.0026835985"
       id="filter70"
       style="color-interpolation-filters:sRGB">
      <feGaussianBlur
         id="feGaussianBlur72"
         stdDeviation="0.18582161" />
    </filter>
    <filter
       style="color-interpolation-filters:sRGB"
       id="filter70-8"
       x="-0.0026835985"
       width="1.0053672"
       y="-0.0026835985"
       height="1.0053672">
      <feGaussianBlur
         stdDeviation="0.18582161"
         id="feGaussianBlur72-1" />
    </filter>
    <filter
       style="color-interpolation-filters:sRGB"
       id="filter70-6"
       x="-0.0026835985"
       width="1.0053672"
       y="-0.0026835985"
       height="1.0053672">
      <feGaussianBlur
         stdDeviation="0.18582161"
         id="feGaussianBlur72-8" />
    </filter>
    <filter
       style="color-interpolation-filters:sRGB"
       id="filter70-4"
       x="-0.0026835985"
       width="1.0053672"
       y="-0.0026835985"
       height="1.0053672">
      <feGaussianBlur
         stdDeviation="0.18582161"
         id="feGaussianBlur72-9" />
    </filter>
  </defs>
  <metadata
     id="metadata39">
    <rdf:RDF>
      <cc:Work
         rdf:about="">
        <dc:format>image/svg+xml</dc:format>
        <dc:type
           rdf:resource="http://purl.org/dc/dcmitype/StillImage" />
        <dc:title></dc:title>
      </cc:Work>
    </rdf:RDF>
  </metadata>
  <g
     id="layer1">
    <path
       d="m 28.517402,94.137124 c -2.195501,-2.388978 -4.457358,-4.735827 -6.428937,-7.318922 -0.529722,-0.694024 -1.132578,-1.351603 -1.51574,-2.136114 -0.439652,-0.900173 -0.616187,-1.9065 -0.924281,-2.859749 0.118526,-1.322012 0.07672,-2.668341 0.355576,-3.966032 1.333226,-6.204334 4.974011,-10.362227 9.650564,-14.468118 5.681578,-4.988272 8.183039,-6.142098 14.718408,-10.190215 -0.05224,0.100959 -0.257799,0.354888 -0.15672,0.302879 9.330825,-4.80109 18.600099,-10.307646 27.3402,-16.041312 2.697482,-1.769597 5.903968,-4.701675 8.370644,-6.859061 2.139114,-2.098355 4.386024,-4.197622 5.943544,-6.793724 0.223568,-0.372642 0.42803,-0.765552 0.546253,-1.183723 0.06152,-0.217618 0.177538,-0.78848 -0.01987,-0.678152 -3.74619,2.093671 -7.288506,4.532907 -10.93276,6.799362 -0.470927,1.248442 -1.021173,2.46978 -1.41278,3.745328 -0.950783,3.096879 -1.728951,6.244174 -2.611117,9.361291 -1.266391,4.474766 -2.566133,8.940044 -3.834527,13.414243 -4.925547,17.374632 -9.665383,34.79769 -14.394516,52.226575 -4.733335,17.15987 -10.38075,34.0455 -17.821592,50.23113 -4.238654,9.2201 -5.814095,11.63516 -10.520699,19.92191 0,0 8.579493,-3.84792 8.579493,-3.84792 v 0 c 4.234601,-8.23156 5.509292,-10.39113 9.389383,-19.50679 6.900931,-16.21265 12.245294,-32.98905 16.990393,-49.94632 1.345784,-4.704521 8.932582,-31.279678 10.524132,-36.643306 3.958109,-13.339093 8.022656,-26.692053 13.241666,-39.604037 0.531093,-1.313944 1.188955,-2.573018 1.783432,-3.859528 -3.00649,0.928978 -6.030696,1.802442 -9.019466,2.786934 -0.06456,0.02127 -0.01773,0.136644 -0.04505,0.198887 -0.14037,0.31985 -0.272691,0.646168 -0.45624,0.943348 -1.482698,2.400602 -3.535079,4.381632 -5.535512,6.339491 -1.174377,1.031258 -2.31313,2.104559 -3.523133,3.093778 -1.481987,1.211577 -3.459726,1.931014 -4.548738,3.505264 -0.608005,0.878916 3.83558,-1.838725 2.966053,-1.21737 -2.009791,1.436169 -4.273156,2.479723 -6.426464,3.690136 -2.380147,1.337924 -4.782259,2.636388 -7.173389,3.954582 -5.34049,3.023621 -10.680983,6.047242 -16.021473,9.070863 -6.598542,4.152604 -9.244003,5.408272 -14.963819,10.529883 -4.92585,4.410683 -8.719153,8.78664 -10.010308,15.406682 -0.283488,1.453507 -0.231928,2.952691 -0.347891,4.429037 0.333349,1.069742 0.514382,2.199473 1.000046,3.209224 0.388307,0.807339 1.038034,1.461042 1.586811,2.169152 1.998162,2.578312 4.279502,4.930222 6.100321,7.647628 0,0 9.558101,-5.857214 9.558101,-5.857214 z"
       id="path44"
       style="fill:none;stroke-width:0.264583" />
    <rect
       transform="rotate(45,14.801537,177.98752)"
       ry="15"
       rx="15"
       y="-55.919838"
       x="94.119774"
       height="122.82121"
       width="124.94093"
       id="rect64"
       style="fill:#000000;stroke-width:0.264583;filter:url(#filter70)" />
    <rect
       style="fill:#000000;stroke-width:0.264583;filter:url(#filter70-8)"
       id="rect64-5"
       width="124.94093"
       height="122.82121"
       x="94.119774"
       y="-55.919838"
       rx="15"
       ry="15"
       transform="rotate(45,-209.97989,273.21471)" />
    <rect
       style="fill:#000000;stroke-width:0.264583;filter:url(#filter70-6)"
       id="rect64-6"
       width="124.94093"
       height="122.82121"
       x="94.119774"
       y="-55.919838"
       rx="15"
       ry="15"
       transform="rotate(45,-50.991066,340.65758)" />
    <rect
       style="fill:#000000;stroke-width:0.264583;filter:url(#filter70-4)"
       id="rect64-3"
       width="124.94093"
       height="122.82121"
       x="94.119774"
       y="-55.919838"
       rx="15"
       ry="15"
       transform="rotate(45,-144.18715,110.54466)" />
    <g
       aria-label="DECCAN ENGINE"
       transform="translate(-86.858952,11.566071)"
       id="text20"
       style="font-style:normal;font-weight:normal;font-size:10.5833px;line-height:1.25;font-family:sans-serif;white-space:pre;shape-inside:url(#rect22);fill:#000000;fill-opacity:1;stroke:none">
      <path
         d="m 597.14938,236.56213 q 0,15.58905 -8.48354,23.85727 -8.44048,8.22516 -24.33097,8.22516 h -17.44079 v -62.95908 h 19.29252 q 14.68471,0 22.82375,8.13903 8.13903,8.13903 8.13903,22.73762 z m -7.75146,0.25838 q 0,-12.31621 -6.20117,-18.56044 -6.1581,-6.24423 -18.34512,-6.24423 H 554.2149 v 50.29836 h 8.91418 q 13.09136,0 19.6801,-6.41648 6.58874,-6.45956 6.58874,-19.07721 z"
         style="font-style:normal;font-variant:normal;font-weight:normal;font-stretch:normal;font-size:88.1944px;font-family:'Open Sans';-inkscape-font-specification:'Open Sans'"
         id="path296" />
      <path
         d="m 646.24197,268.64456 h -35.09689 v -62.95908 h 35.09689 v 6.50261 H 618.4659 v 20.28299 h 26.09659 v 6.45955 H 618.4659 v 23.16825 h 27.77607 z"
         style="font-style:normal;font-variant:normal;font-weight:normal;font-stretch:normal;font-size:88.1944px;font-family:'Open Sans';-inkscape-font-specification:'Open Sans'"
         id="path298" />
      <path
         d="m 687.19552,211.32682 q -10.37835,0 -16.40726,6.93325 -5.98585,6.89018 -5.98585,18.90495 0,12.35927 5.77053,19.12027 5.8136,6.71793 16.53645,6.71793 6.58874,0 15.02922,-2.3685 v 6.41649 q -6.54568,2.45463 -16.14887,2.45463 -13.90957,0 -21.48878,-8.44048 -7.53614,-8.44048 -7.53614,-23.98647 0,-9.73239 3.61735,-17.05321 3.66041,-7.32083 10.50754,-11.28268 6.89018,-3.96186 16.19194,-3.96186 9.90464,0 17.31159,3.61735 l -3.10058,6.28729 q -7.14857,-3.35896 -14.29714,-3.35896 z"
         style="font-style:normal;font-variant:normal;font-weight:normal;font-stretch:normal;font-size:88.1944px;font-family:'Open Sans';-inkscape-font-specification:'Open Sans'"
         id="path300" />
      <path
         d="m 742.83378,211.32682 q -10.37835,0 -16.40726,6.93325 -5.98585,6.89018 -5.98585,18.90495 0,12.35927 5.77053,19.12027 5.8136,6.71793 16.53645,6.71793 6.58874,0 15.02922,-2.3685 v 6.41649 q -6.54568,2.45463 -16.14887,2.45463 -13.90957,0 -21.48878,-8.44048 -7.53614,-8.44048 -7.53614,-23.98647 0,-9.73239 3.61735,-17.05321 3.66041,-7.32083 10.50754,-11.28268 6.89018,-3.96186 16.19194,-3.96186 9.90464,0 17.31159,3.61735 l -3.10058,6.28729 q -7.14857,-3.35896 -14.29714,-3.35896 z"
         style="font-style:normal;font-variant:normal;font-weight:normal;font-stretch:normal;font-size:88.1944px;font-family:'Open Sans';-inkscape-font-specification:'Open Sans'"
         id="path302" />
      <path
         d="m 811.08971,268.64456 -7.83759,-20.0246 h -25.23531 l -7.75146,20.0246 h -7.40695 l 24.8908,-63.21747 h 6.1581 l 24.76162,63.21747 z m -10.11996,-26.61335 -7.32083,-19.50784 q -1.4211,-3.70347 -2.92833,-9.08643 -0.9474,4.13411 -2.71301,9.08643 l -7.40695,19.50784 z"
         style="font-style:normal;font-variant:normal;font-weight:normal;font-stretch:normal;font-size:88.1944px;font-family:'Open Sans';-inkscape-font-specification:'Open Sans'"
         id="path304" />
      <path
         d="m 876.50342,268.64456 h -8.35435 L 833.7412,215.80544 h -0.34451 q 0.68902,9.30175 0.68902,17.05321 v 35.78591 h -6.761 v -62.95908 h 8.26823 l 34.32174,52.6238 h 0.34451 q -0.0861,-1.16272 -0.38757,-7.45001 -0.30145,-6.33036 -0.21532,-9.04337 v -36.13042 h 6.84712 z"
         style="font-style:normal;font-variant:normal;font-weight:normal;font-stretch:normal;font-size:88.1944px;font-family:'Open Sans';-inkscape-font-specification:'Open Sans'"
         id="path306" />
      <path
         d="m 951.82178,268.64456 h -35.09689 v -62.95908 h 35.09689 v 6.50261 h -27.77607 v 20.28299 h 26.09659 v 6.45955 h -26.09659 v 23.16825 h 27.77607 z"
         style="font-style:normal;font-variant:normal;font-weight:normal;font-stretch:normal;font-size:88.1944px;font-family:'Open Sans';-inkscape-font-specification:'Open Sans'"
         id="path308" />
      <path
         d="m 1014.9962,268.64456 h -8.3544 l -34.40783,-52.83912 h -0.34451 q 0.68902,9.30175 0.68902,17.05321 v 35.78591 h -6.761 v -62.95908 h 8.26822 l 34.3217,52.6238 h 0.3446 q -0.086,-1.16272 -0.3876,-7.45001 -0.3015,-6.33036 -0.2153,-9.04337 v -36.13042 h 6.8471 z"
         style="font-style:normal;font-variant:normal;font-weight:normal;font-stretch:normal;font-size:88.1944px;font-family:'Open Sans';-inkscape-font-specification:'Open Sans'"
         id="path310" />
      <path
         d="m 1059.9977,235.65779 h 21.4027 v 30.61827 q -4.9954,1.59336 -10.1631,2.41157 -5.1676,0.81821 -11.9717,0.81821 -14.2971,0 -22.2639,-8.48355 -7.9668,-8.5266 -7.9668,-23.85727 0,-9.81852 3.9188,-17.18241 3.9619,-7.40695 11.3688,-11.28268 7.407,-3.91879 17.3547,-3.91879 10.0769,0 18.7758,3.70347 l -2.8422,6.45955 q -8.5267,-3.61734 -16.4073,-3.61734 -11.498,0 -17.9576,6.84712 -6.4595,6.84712 -6.4595,18.99108 0,12.74685 6.2012,19.33559 6.2442,6.58874 18.302,6.58874 6.5457,0 12.7899,-1.50723 v -19.37865 h -14.0818 z"
         style="font-style:normal;font-variant:normal;font-weight:normal;font-stretch:normal;font-size:88.1944px;font-family:'Open Sans';-inkscape-font-specification:'Open Sans'"
         id="path312" />
      <path
         d="m 1096.5588,268.64456 v -62.95908 h 7.3208 v 62.95908 z"
         style="font-style:normal;font-variant:normal;font-weight:normal;font-stretch:normal;font-size:88.1944px;font-family:'Open Sans';-inkscape-font-specification:'Open Sans'"
         id="path314" />
      <path
         d="m 1170.3699,268.64456 h -8.3543 l -34.4079,-52.83912 h -0.3445 q 0.689,9.30175 0.689,17.05321 v 35.78591 h -6.761 v -62.95908 h 8.2682 l 34.3218,52.6238 h 0.3445 q -0.086,-1.16272 -0.3876,-7.45001 -0.3014,-6.33036 -0.2153,-9.04337 v -36.13042 h 6.8471 z"
         style="font-style:normal;font-variant:normal;font-weight:normal;font-stretch:normal;font-size:88.1944px;font-family:'Open Sans';-inkscape-font-specification:'Open Sans'"
         id="path316" />
      <path
         d="m 1222.7784,268.64456 h -35.0969 v -62.95908 h 35.0969 v 6.50261 h -27.7761 v 20.28299 h 26.0966 v 6.45955 h -26.0966 v 23.16825 h 27.7761 z"
         style="font-style:normal;font-variant:normal;font-weight:normal;font-stretch:normal;font-size:88.1944px;font-family:'Open Sans';-inkscape-font-specification:'Open Sans'"
         id="path318" />
    </g>
  </g>
</svg>
